<svg width="30" height="30" viewBox="0 6 35 30" fill="none" xmlns="http://www.w3.org/2000/svg">
<path d="M7.20005 26.1V20.097L14.4144 24.2388C15.5056 24.8654 16.7418 25.1951 18 25.1951C19.2583 25.1951 20.4945 24.8654 21.5856 24.2388L28.8001 20.0988V26.1C28.8003 26.2182 28.7772 26.3354 28.7321 26.4447C28.687 26.554 28.6208 26.6534 28.5373 26.7372L28.5336 26.739L28.5301 26.7444L28.5175 26.7552L28.476 26.7948L28.3321 26.928C28.1561 27.0823 27.9754 27.2312 27.7903 27.3744C27.1437 27.8708 26.4567 28.3121 25.7365 28.6938C23.3542 29.9574 20.6967 30.6129 18 30.6018C15.3034 30.6129 12.6459 29.9574 10.2636 28.6938C9.54399 28.3121 8.85758 27.8707 8.21165 27.3744C7.97413 27.1913 7.74471 26.9979 7.52405 26.7948L7.48265 26.7552C7.39444 26.6702 7.32402 26.5684 7.27551 26.456C7.22699 26.3435 7.20134 26.2225 7.20005 26.1ZM33.7483 15.1812L20.6893 22.6782C19.8709 23.1481 18.9437 23.3954 18 23.3954C17.0564 23.3954 16.1292 23.1481 15.3108 22.6782L3.60005 15.9552V24.3C3.60005 24.5387 3.50523 24.7676 3.33645 24.9364C3.16766 25.1051 2.93874 25.2 2.70005 25.2C2.46135 25.2 2.23244 25.1051 2.06365 24.9364C1.89487 24.7676 1.80005 24.5387 1.80005 24.3V14.4C1.79996 14.2377 1.84374 14.0784 1.92676 13.939C2.00978 13.7996 2.12894 13.6852 2.27165 13.608L15.3108 6.12176C16.129 5.65129 17.0563 5.40369 18 5.40369C18.9438 5.40369 19.8711 5.65129 20.6893 6.12176L33.7483 13.6206C33.8855 13.6994 33.9995 13.8131 34.0788 13.9501C34.158 14.0871 34.1998 14.2426 34.1998 14.4009C34.1998 14.5591 34.158 14.7146 34.0788 14.8516C33.9995 14.9886 33.8855 15.1023 33.7483 15.1812Z" fill="#F1F1F1"/>
</svg>
