<svg width="250" height="250" viewBox="0 0 300 300" fill="none" xmlns="http://www.w3.org/2000/svg">
<g filter="url(#filter0_i_50_17)">
<path d="M58.5 196.5C66.5808 196.5 74.3307 193.29 80.0447 187.576C85.7587 181.862 88.9688 174.112 88.9688 166.031C88.9688 157.95 85.7587 150.201 80.0447 144.487C74.3307 138.773 66.5808 135.562 58.5 135.562C50.4192 135.562 42.6693 138.773 36.9553 144.487C31.2413 150.201 28.0313 157.95 28.0312 166.031C28.0313 174.112 31.2413 181.862 36.9553 187.576C42.6693 193.29 50.4192 196.5 58.5 196.5Z" fill="url(#paint0_radial_50_17)"/>
</g>
<g filter="url(#filter1_f_50_17)">
<path d="M58.5 185.906C63.7712 185.906 68.8265 183.812 72.5538 180.085C76.281 176.358 78.375 171.302 78.375 166.031C78.375 160.76 76.281 155.705 72.5538 151.978C68.8265 148.25 63.7712 146.156 58.5 146.156C53.2288 146.156 48.1735 148.25 44.4463 151.978C40.719 155.705 38.625 160.76 38.625 166.031C38.625 171.302 40.719 176.358 44.4463 180.085C48.1735 183.812 53.2288 185.906 58.5 185.906Z" fill="url(#paint1_linear_50_17)"/>
</g>
<g filter="url(#filter2_i_50_17)">
<path d="M241.5 196.5C249.581 196.5 257.331 193.29 263.045 187.576C268.759 181.862 271.969 174.112 271.969 166.031C271.969 157.95 268.759 150.201 263.045 144.487C257.331 138.773 249.581 135.562 241.5 135.562C233.419 135.562 225.669 138.773 219.955 144.487C214.241 150.201 211.031 157.95 211.031 166.031C211.031 174.112 214.241 181.862 219.955 187.576C225.669 193.29 233.419 196.5 241.5 196.5Z" fill="url(#paint2_linear_50_17)"/>
<path d="M241.5 196.5C249.581 196.5 257.331 193.29 263.045 187.576C268.759 181.862 271.969 174.112 271.969 166.031C271.969 157.95 268.759 150.201 263.045 144.487C257.331 138.773 249.581 135.562 241.5 135.562C233.419 135.562 225.669 138.773 219.955 144.487C214.241 150.201 211.031 157.95 211.031 166.031C211.031 174.112 214.241 181.862 219.955 187.576C225.669 193.29 233.419 196.5 241.5 196.5Z" fill="url(#paint3_radial_50_17)"/>
</g>
<g filter="url(#filter3_f_50_17)">
<path d="M241.5 185.906C246.771 185.906 251.826 183.812 255.554 180.085C259.281 176.358 261.375 171.302 261.375 166.031C261.375 160.76 259.281 155.705 255.554 151.978C251.826 148.25 246.771 146.156 241.5 146.156C236.229 146.156 231.174 148.25 227.446 151.978C223.719 155.705 221.625 160.76 221.625 166.031C221.625 171.302 223.719 176.358 227.446 180.085C231.174 183.812 236.229 185.906 241.5 185.906Z" fill="#E4AF9A"/>
<path d="M241.5 185.906C246.771 185.906 251.826 183.812 255.554 180.085C259.281 176.358 261.375 171.302 261.375 166.031C261.375 160.76 259.281 155.705 255.554 151.978C251.826 148.25 246.771 146.156 241.5 146.156C236.229 146.156 231.174 148.25 227.446 151.978C223.719 155.705 221.625 160.76 221.625 166.031C221.625 171.302 223.719 176.358 227.446 180.085C231.174 183.812 236.229 185.906 241.5 185.906Z" fill="url(#paint4_radial_50_17)"/>
<path d="M241.5 185.906C246.771 185.906 251.826 183.812 255.554 180.085C259.281 176.358 261.375 171.302 261.375 166.031C261.375 160.76 259.281 155.705 255.554 151.978C251.826 148.25 246.771 146.156 241.5 146.156C236.229 146.156 231.174 148.25 227.446 151.978C223.719 155.705 221.625 160.76 221.625 166.031C221.625 171.302 223.719 176.358 227.446 180.085C231.174 183.812 236.229 185.906 241.5 185.906Z" fill="url(#paint5_radial_50_17)"/>
</g>
<g filter="url(#filter4_i_50_17)">
<path d="M125.494 37.6969C84.778 37.6969 52.1905 71.7375 53.8687 112.631L56.4937 189.722C58.7343 244.594 99.8999 281.447 149.953 281.447C199.997 281.447 241.172 244.594 243.422 189.722L244.2 151.003L245.934 112.631C247.622 71.7375 215.034 37.6969 174.319 37.6969H125.494Z" fill="url(#paint6_radial_50_17)"/>
<path d="M125.494 37.6969C84.778 37.6969 52.1905 71.7375 53.8687 112.631L56.4937 189.722C58.7343 244.594 99.8999 281.447 149.953 281.447C199.997 281.447 241.172 244.594 243.422 189.722L244.2 151.003L245.934 112.631C247.622 71.7375 215.034 37.6969 174.319 37.6969H125.494Z" fill="url(#paint7_radial_50_17)"/>
<path d="M125.494 37.6969C84.778 37.6969 52.1905 71.7375 53.8687 112.631L56.4937 189.722C58.7343 244.594 99.8999 281.447 149.953 281.447C199.997 281.447 241.172 244.594 243.422 189.722L244.2 151.003L245.934 112.631C247.622 71.7375 215.034 37.6969 174.319 37.6969H125.494Z" fill="url(#paint8_radial_50_17)"/>
<path d="M125.494 37.6969C84.778 37.6969 52.1905 71.7375 53.8687 112.631L56.4937 189.722C58.7343 244.594 99.8999 281.447 149.953 281.447C199.997 281.447 241.172 244.594 243.422 189.722L244.2 151.003L245.934 112.631C247.622 71.7375 215.034 37.6969 174.319 37.6969H125.494Z" fill="url(#paint9_radial_50_17)"/>
<path d="M125.494 37.6969C84.778 37.6969 52.1905 71.7375 53.8687 112.631L56.4937 189.722C58.7343 244.594 99.8999 281.447 149.953 281.447C199.997 281.447 241.172 244.594 243.422 189.722L244.2 151.003L245.934 112.631C247.622 71.7375 215.034 37.6969 174.319 37.6969H125.494Z" fill="url(#paint10_linear_50_17)"/>
</g>
<path d="M125.494 37.6969C84.778 37.6969 52.1905 71.7375 53.8687 112.631L56.4937 189.722C58.7343 244.594 99.8999 281.447 149.953 281.447C199.997 281.447 241.172 244.594 243.422 189.722L244.2 151.003L245.934 112.631C247.622 71.7375 215.034 37.6969 174.319 37.6969H125.494Z" fill="url(#paint11_radial_50_17)"/>
<path d="M125.494 37.6969C84.778 37.6969 52.1905 71.7375 53.8687 112.631L56.4937 189.722C58.7343 244.594 99.8999 281.447 149.953 281.447C199.997 281.447 241.172 244.594 243.422 189.722L244.2 151.003L245.934 112.631C247.622 71.7375 215.034 37.6969 174.319 37.6969H125.494Z" fill="url(#paint12_radial_50_17)"/>
<path d="M125.494 37.6969C84.778 37.6969 52.1905 71.7375 53.8687 112.631L56.4937 189.722C58.7343 244.594 99.8999 281.447 149.953 281.447C199.997 281.447 241.172 244.594 243.422 189.722L244.2 151.003L245.934 112.631C247.622 71.7375 215.034 37.6969 174.319 37.6969H125.494Z" fill="url(#paint13_radial_50_17)"/>
<path d="M125.494 37.6969C84.778 37.6969 52.1905 71.7375 53.8687 112.631L56.4937 189.722C58.7343 244.594 99.8999 281.447 149.953 281.447C199.997 281.447 241.172 244.594 243.422 189.722L244.2 151.003L245.934 112.631C247.622 71.7375 215.034 37.6969 174.319 37.6969H125.494Z" fill="url(#paint14_radial_50_17)"/>
<path d="M125.494 37.6969C84.778 37.6969 52.1905 71.7375 53.8687 112.631L56.4937 189.722C58.7343 244.594 99.8999 281.447 149.953 281.447C199.997 281.447 241.172 244.594 243.422 189.722L244.2 151.003L245.934 112.631C247.622 71.7375 215.034 37.6969 174.319 37.6969H125.494Z" fill="url(#paint15_radial_50_17)"/>
<path d="M149.925 216.881C140.082 216.918 130.378 214.559 121.65 210.009C121.045 209.677 120.345 209.559 119.664 209.672C118.983 209.786 118.36 210.126 117.895 210.637C117.431 211.148 117.152 211.801 117.104 212.489C117.055 213.178 117.24 213.863 117.628 214.434C121.101 219.85 125.878 224.307 131.521 227.398C137.163 230.489 143.491 232.114 149.925 232.125C156.359 232.115 162.687 230.49 168.33 227.399C173.973 224.308 178.749 219.85 182.222 214.434C183.909 211.8 181.003 208.603 178.191 210.009C169.481 214.601 159.77 216.962 149.925 216.881Z" fill="#88024E"/>
<g filter="url(#filter5_i_50_17)">
<path d="M88.4062 131.737C93.9375 129.769 101.625 128.362 111.562 129.3" stroke="#140E1A" stroke-miterlimit="10" stroke-linecap="round" stroke-linejoin="round"/>
</g>
<g filter="url(#filter6_f_50_17)">
<path d="M88.4062 131.737C93.9375 129.769 101.625 128.362 111.562 129.3" stroke="url(#paint16_linear_50_17)" stroke-width="0.3" stroke-miterlimit="10" stroke-linecap="round" stroke-linejoin="round"/>
</g>
<g filter="url(#filter7_i_50_17)">
<path d="M206.25 131.737C200.719 129.769 193.031 128.362 183.094 129.3" stroke="#140E1A" stroke-miterlimit="10" stroke-linecap="round" stroke-linejoin="round"/>
</g>
<g filter="url(#filter8_f_50_17)">
<path d="M206.25 131.737C200.719 129.769 193.031 128.362 183.094 129.3" stroke="url(#paint17_linear_50_17)" stroke-width="0.3" stroke-miterlimit="10" stroke-linecap="round" stroke-linejoin="round"/>
</g>
<g filter="url(#filter9_i_50_17)">
<path d="M44.1 120.469L45 158.719C45 166.031 51.2625 168.178 54.8156 168.403C54.9348 168.408 55.0538 168.389 55.1652 168.346C55.2766 168.304 55.3781 168.238 55.4634 168.155C55.5486 168.071 55.6158 167.971 55.6608 167.861C55.7058 167.75 55.7276 167.632 55.725 167.513L55.2187 130.875C55.2187 125.156 56.9625 118.819 62.25 113.888C67.6687 108.825 71.0343 103.706 71.775 97.6969C72.3187 93.2063 73.2 90.8063 74.025 89.3063C74.6343 88.2094 76.6781 88.4625 77.2219 89.5875C85.1531 106.116 100.228 111.544 111.647 112.406C116.691 112.781 120.197 108.131 120.169 103.069C120.122 96.4313 120.769 89.8969 122.016 87.6656C142.669 113.006 172.847 112.416 181.781 112.134C190.716 111.834 212.691 112.416 228.656 113.738C241.434 114.797 243.891 127.219 243.891 131.456V167.288C243.891 167.411 243.915 167.533 243.962 167.646C244.009 167.76 244.078 167.863 244.165 167.95C244.252 168.037 244.356 168.107 244.469 168.154C244.583 168.201 244.705 168.225 244.828 168.225H245.887C250.481 168.225 254.147 164.569 254.091 159.975C253.966 154.425 253.985 148.874 254.147 143.325C254.587 132.638 254.287 130.725 261.909 116.231C268.537 103.613 272.091 94.8375 268.059 79.3125C264.628 66.1031 250.341 58.0688 244.912 55.2938C239.803 52.6688 236.934 50.0906 234.441 45.2625C231.956 40.425 228.403 29.7 209.616 21.825C192.834 14.7938 181.781 21.0094 174.9 24.0938C168.009 27.1688 161.269 27.75 149.991 22.3313C133.153 15.0094 117.619 18.9563 108.544 28.7813C99.45 38.5875 89.9343 39.3188 80.85 43.125C71.775 46.9406 65.0343 52.8 56.1 65.8406C44.25 81.3563 43.1625 108.309 44.0906 120.478L44.1 120.469Z" fill="#2C2726"/>
<path d="M44.1 120.469L45 158.719C45 166.031 51.2625 168.178 54.8156 168.403C54.9348 168.408 55.0538 168.389 55.1652 168.346C55.2766 168.304 55.3781 168.238 55.4634 168.155C55.5486 168.071 55.6158 167.971 55.6608 167.861C55.7058 167.75 55.7276 167.632 55.725 167.513L55.2187 130.875C55.2187 125.156 56.9625 118.819 62.25 113.888C67.6687 108.825 71.0343 103.706 71.775 97.6969C72.3187 93.2063 73.2 90.8063 74.025 89.3063C74.6343 88.2094 76.6781 88.4625 77.2219 89.5875C85.1531 106.116 100.228 111.544 111.647 112.406C116.691 112.781 120.197 108.131 120.169 103.069C120.122 96.4313 120.769 89.8969 122.016 87.6656C142.669 113.006 172.847 112.416 181.781 112.134C190.716 111.834 212.691 112.416 228.656 113.738C241.434 114.797 243.891 127.219 243.891 131.456V167.288C243.891 167.411 243.915 167.533 243.962 167.646C244.009 167.76 244.078 167.863 244.165 167.95C244.252 168.037 244.356 168.107 244.469 168.154C244.583 168.201 244.705 168.225 244.828 168.225H245.887C250.481 168.225 254.147 164.569 254.091 159.975C253.966 154.425 253.985 148.874 254.147 143.325C254.587 132.638 254.287 130.725 261.909 116.231C268.537 103.613 272.091 94.8375 268.059 79.3125C264.628 66.1031 250.341 58.0688 244.912 55.2938C239.803 52.6688 236.934 50.0906 234.441 45.2625C231.956 40.425 228.403 29.7 209.616 21.825C192.834 14.7938 181.781 21.0094 174.9 24.0938C168.009 27.1688 161.269 27.75 149.991 22.3313C133.153 15.0094 117.619 18.9563 108.544 28.7813C99.45 38.5875 89.9343 39.3188 80.85 43.125C71.775 46.9406 65.0343 52.8 56.1 65.8406C44.25 81.3563 43.1625 108.309 44.0906 120.478L44.1 120.469Z" fill="url(#paint18_radial_50_17)"/>
<path d="M44.1 120.469L45 158.719C45 166.031 51.2625 168.178 54.8156 168.403C54.9348 168.408 55.0538 168.389 55.1652 168.346C55.2766 168.304 55.3781 168.238 55.4634 168.155C55.5486 168.071 55.6158 167.971 55.6608 167.861C55.7058 167.75 55.7276 167.632 55.725 167.513L55.2187 130.875C55.2187 125.156 56.9625 118.819 62.25 113.888C67.6687 108.825 71.0343 103.706 71.775 97.6969C72.3187 93.2063 73.2 90.8063 74.025 89.3063C74.6343 88.2094 76.6781 88.4625 77.2219 89.5875C85.1531 106.116 100.228 111.544 111.647 112.406C116.691 112.781 120.197 108.131 120.169 103.069C120.122 96.4313 120.769 89.8969 122.016 87.6656C142.669 113.006 172.847 112.416 181.781 112.134C190.716 111.834 212.691 112.416 228.656 113.738C241.434 114.797 243.891 127.219 243.891 131.456V167.288C243.891 167.411 243.915 167.533 243.962 167.646C244.009 167.76 244.078 167.863 244.165 167.95C244.252 168.037 244.356 168.107 244.469 168.154C244.583 168.201 244.705 168.225 244.828 168.225H245.887C250.481 168.225 254.147 164.569 254.091 159.975C253.966 154.425 253.985 148.874 254.147 143.325C254.587 132.638 254.287 130.725 261.909 116.231C268.537 103.613 272.091 94.8375 268.059 79.3125C264.628 66.1031 250.341 58.0688 244.912 55.2938C239.803 52.6688 236.934 50.0906 234.441 45.2625C231.956 40.425 228.403 29.7 209.616 21.825C192.834 14.7938 181.781 21.0094 174.9 24.0938C168.009 27.1688 161.269 27.75 149.991 22.3313C133.153 15.0094 117.619 18.9563 108.544 28.7813C99.45 38.5875 89.9343 39.3188 80.85 43.125C71.775 46.9406 65.0343 52.8 56.1 65.8406C44.25 81.3563 43.1625 108.309 44.0906 120.478L44.1 120.469Z" fill="url(#paint19_radial_50_17)"/>
<path d="M44.1 120.469L45 158.719C45 166.031 51.2625 168.178 54.8156 168.403C54.9348 168.408 55.0538 168.389 55.1652 168.346C55.2766 168.304 55.3781 168.238 55.4634 168.155C55.5486 168.071 55.6158 167.971 55.6608 167.861C55.7058 167.75 55.7276 167.632 55.725 167.513L55.2187 130.875C55.2187 125.156 56.9625 118.819 62.25 113.888C67.6687 108.825 71.0343 103.706 71.775 97.6969C72.3187 93.2063 73.2 90.8063 74.025 89.3063C74.6343 88.2094 76.6781 88.4625 77.2219 89.5875C85.1531 106.116 100.228 111.544 111.647 112.406C116.691 112.781 120.197 108.131 120.169 103.069C120.122 96.4313 120.769 89.8969 122.016 87.6656C142.669 113.006 172.847 112.416 181.781 112.134C190.716 111.834 212.691 112.416 228.656 113.738C241.434 114.797 243.891 127.219 243.891 131.456V167.288C243.891 167.411 243.915 167.533 243.962 167.646C244.009 167.76 244.078 167.863 244.165 167.95C244.252 168.037 244.356 168.107 244.469 168.154C244.583 168.201 244.705 168.225 244.828 168.225H245.887C250.481 168.225 254.147 164.569 254.091 159.975C253.966 154.425 253.985 148.874 254.147 143.325C254.587 132.638 254.287 130.725 261.909 116.231C268.537 103.613 272.091 94.8375 268.059 79.3125C264.628 66.1031 250.341 58.0688 244.912 55.2938C239.803 52.6688 236.934 50.0906 234.441 45.2625C231.956 40.425 228.403 29.7 209.616 21.825C192.834 14.7938 181.781 21.0094 174.9 24.0938C168.009 27.1688 161.269 27.75 149.991 22.3313C133.153 15.0094 117.619 18.9563 108.544 28.7813C99.45 38.5875 89.9343 39.3188 80.85 43.125C71.775 46.9406 65.0343 52.8 56.1 65.8406C44.25 81.3563 43.1625 108.309 44.0906 120.478L44.1 120.469Z" fill="url(#paint20_radial_50_17)"/>
<path d="M44.1 120.469L45 158.719C45 166.031 51.2625 168.178 54.8156 168.403C54.9348 168.408 55.0538 168.389 55.1652 168.346C55.2766 168.304 55.3781 168.238 55.4634 168.155C55.5486 168.071 55.6158 167.971 55.6608 167.861C55.7058 167.75 55.7276 167.632 55.725 167.513L55.2187 130.875C55.2187 125.156 56.9625 118.819 62.25 113.888C67.6687 108.825 71.0343 103.706 71.775 97.6969C72.3187 93.2063 73.2 90.8063 74.025 89.3063C74.6343 88.2094 76.6781 88.4625 77.2219 89.5875C85.1531 106.116 100.228 111.544 111.647 112.406C116.691 112.781 120.197 108.131 120.169 103.069C120.122 96.4313 120.769 89.8969 122.016 87.6656C142.669 113.006 172.847 112.416 181.781 112.134C190.716 111.834 212.691 112.416 228.656 113.738C241.434 114.797 243.891 127.219 243.891 131.456V167.288C243.891 167.411 243.915 167.533 243.962 167.646C244.009 167.76 244.078 167.863 244.165 167.95C244.252 168.037 244.356 168.107 244.469 168.154C244.583 168.201 244.705 168.225 244.828 168.225H245.887C250.481 168.225 254.147 164.569 254.091 159.975C253.966 154.425 253.985 148.874 254.147 143.325C254.587 132.638 254.287 130.725 261.909 116.231C268.537 103.613 272.091 94.8375 268.059 79.3125C264.628 66.1031 250.341 58.0688 244.912 55.2938C239.803 52.6688 236.934 50.0906 234.441 45.2625C231.956 40.425 228.403 29.7 209.616 21.825C192.834 14.7938 181.781 21.0094 174.9 24.0938C168.009 27.1688 161.269 27.75 149.991 22.3313C133.153 15.0094 117.619 18.9563 108.544 28.7813C99.45 38.5875 89.9343 39.3188 80.85 43.125C71.775 46.9406 65.0343 52.8 56.1 65.8406C44.25 81.3563 43.1625 108.309 44.0906 120.478L44.1 120.469Z" fill="url(#paint21_radial_50_17)"/>
<path d="M44.1 120.469L45 158.719C45 166.031 51.2625 168.178 54.8156 168.403C54.9348 168.408 55.0538 168.389 55.1652 168.346C55.2766 168.304 55.3781 168.238 55.4634 168.155C55.5486 168.071 55.6158 167.971 55.6608 167.861C55.7058 167.75 55.7276 167.632 55.725 167.513L55.2187 130.875C55.2187 125.156 56.9625 118.819 62.25 113.888C67.6687 108.825 71.0343 103.706 71.775 97.6969C72.3187 93.2063 73.2 90.8063 74.025 89.3063C74.6343 88.2094 76.6781 88.4625 77.2219 89.5875C85.1531 106.116 100.228 111.544 111.647 112.406C116.691 112.781 120.197 108.131 120.169 103.069C120.122 96.4313 120.769 89.8969 122.016 87.6656C142.669 113.006 172.847 112.416 181.781 112.134C190.716 111.834 212.691 112.416 228.656 113.738C241.434 114.797 243.891 127.219 243.891 131.456V167.288C243.891 167.411 243.915 167.533 243.962 167.646C244.009 167.76 244.078 167.863 244.165 167.95C244.252 168.037 244.356 168.107 244.469 168.154C244.583 168.201 244.705 168.225 244.828 168.225H245.887C250.481 168.225 254.147 164.569 254.091 159.975C253.966 154.425 253.985 148.874 254.147 143.325C254.587 132.638 254.287 130.725 261.909 116.231C268.537 103.613 272.091 94.8375 268.059 79.3125C264.628 66.1031 250.341 58.0688 244.912 55.2938C239.803 52.6688 236.934 50.0906 234.441 45.2625C231.956 40.425 228.403 29.7 209.616 21.825C192.834 14.7938 181.781 21.0094 174.9 24.0938C168.009 27.1688 161.269 27.75 149.991 22.3313C133.153 15.0094 117.619 18.9563 108.544 28.7813C99.45 38.5875 89.9343 39.3188 80.85 43.125C71.775 46.9406 65.0343 52.8 56.1 65.8406C44.25 81.3563 43.1625 108.309 44.0906 120.478L44.1 120.469Z" fill="url(#paint22_radial_50_17)"/>
</g>
<g filter="url(#filter10_f_50_17)">
<path d="M78.375 79.8C80.3625 87.675 88.9688 104.184 107.494 107.147" stroke="url(#paint23_linear_50_17)" stroke-width="0.4" stroke-linecap="round"/>
</g>
<g filter="url(#filter11_f_50_17)">
<path d="M131.691 191.906L145.453 170.644C145.849 170.035 146.404 169.546 147.057 169.229C147.71 168.913 148.438 168.78 149.161 168.845C149.884 168.911 150.575 169.172 151.161 169.602C151.747 170.031 152.204 170.611 152.484 171.281L161.091 191.906H161.006C161.589 192.992 161.864 194.217 161.802 195.448C161.739 196.679 161.341 197.87 160.65 198.891C157.275 203.841 153.009 207.047 146.634 207.047C140.353 207.047 134.972 203.841 131.691 198.891C130.041 196.434 130.284 194.072 131.691 191.916V191.906Z" fill="#CF928D"/>
</g>
<g filter="url(#filter12_f_50_17)">
<path d="M134.653 190.144L146.372 165.731C146.687 165.081 147.178 164.532 147.79 164.147C148.402 163.762 149.109 163.557 149.832 163.554C150.554 163.551 151.263 163.751 151.878 164.131C152.493 164.511 152.989 165.055 153.309 165.703L165.581 190.716H165.487C166.071 191.799 166.347 193.022 166.286 194.251C166.225 195.481 165.829 196.67 165.141 197.691C163.479 200.213 161.217 202.283 158.558 203.715C155.899 205.147 152.926 205.897 149.906 205.897C146.886 205.897 143.913 205.147 141.254 203.715C138.595 202.283 136.333 200.213 134.672 197.691C133.921 196.576 133.518 195.264 133.515 193.92C133.512 192.576 133.908 191.262 134.653 190.144Z" fill="#FAC4B1"/>
<path d="M134.653 190.144L146.372 165.731C146.687 165.081 147.178 164.532 147.79 164.147C148.402 163.762 149.109 163.557 149.832 163.554C150.554 163.551 151.263 163.751 151.878 164.131C152.493 164.511 152.989 165.055 153.309 165.703L165.581 190.716H165.487C166.071 191.799 166.347 193.022 166.286 194.251C166.225 195.481 165.829 196.67 165.141 197.691C163.479 200.213 161.217 202.283 158.558 203.715C155.899 205.147 152.926 205.897 149.906 205.897C146.886 205.897 143.913 205.147 141.254 203.715C138.595 202.283 136.333 200.213 134.672 197.691C133.921 196.576 133.518 195.264 133.515 193.92C133.512 192.576 133.908 191.262 134.653 190.144Z" fill="url(#paint24_linear_50_17)"/>
<path d="M134.653 190.144L146.372 165.731C146.687 165.081 147.178 164.532 147.79 164.147C148.402 163.762 149.109 163.557 149.832 163.554C150.554 163.551 151.263 163.751 151.878 164.131C152.493 164.511 152.989 165.055 153.309 165.703L165.581 190.716H165.487C166.071 191.799 166.347 193.022 166.286 194.251C166.225 195.481 165.829 196.67 165.141 197.691C163.479 200.213 161.217 202.283 158.558 203.715C155.899 205.147 152.926 205.897 149.906 205.897C146.886 205.897 143.913 205.147 141.254 203.715C138.595 202.283 136.333 200.213 134.672 197.691C133.921 196.576 133.518 195.264 133.515 193.92C133.512 192.576 133.908 191.262 134.653 190.144Z" fill="url(#paint25_linear_50_17)"/>
<path d="M134.653 190.144L146.372 165.731C146.687 165.081 147.178 164.532 147.79 164.147C148.402 163.762 149.109 163.557 149.832 163.554C150.554 163.551 151.263 163.751 151.878 164.131C152.493 164.511 152.989 165.055 153.309 165.703L165.581 190.716H165.487C166.071 191.799 166.347 193.022 166.286 194.251C166.225 195.481 165.829 196.67 165.141 197.691C163.479 200.213 161.217 202.283 158.558 203.715C155.899 205.147 152.926 205.897 149.906 205.897C146.886 205.897 143.913 205.147 141.254 203.715C138.595 202.283 136.333 200.213 134.672 197.691C133.921 196.576 133.518 195.264 133.515 193.92C133.512 192.576 133.908 191.262 134.653 190.144Z" fill="url(#paint26_linear_50_17)"/>
<path d="M134.653 190.144L146.372 165.731C146.687 165.081 147.178 164.532 147.79 164.147C148.402 163.762 149.109 163.557 149.832 163.554C150.554 163.551 151.263 163.751 151.878 164.131C152.493 164.511 152.989 165.055 153.309 165.703L165.581 190.716H165.487C166.071 191.799 166.347 193.022 166.286 194.251C166.225 195.481 165.829 196.67 165.141 197.691C163.479 200.213 161.217 202.283 158.558 203.715C155.899 205.147 152.926 205.897 149.906 205.897C146.886 205.897 143.913 205.147 141.254 203.715C138.595 202.283 136.333 200.213 134.672 197.691C133.921 196.576 133.518 195.264 133.515 193.92C133.512 192.576 133.908 191.262 134.653 190.144Z" fill="url(#paint27_radial_50_17)"/>
</g>
<path d="M134.653 190.144L146.372 165.731C146.687 165.081 147.178 164.532 147.79 164.147C148.402 163.762 149.109 163.557 149.832 163.554C150.554 163.551 151.263 163.751 151.878 164.131C152.493 164.511 152.989 165.055 153.309 165.703L165.581 190.716H165.487C166.071 191.799 166.347 193.022 166.286 194.251C166.225 195.481 165.829 196.67 165.141 197.691C163.479 200.213 161.217 202.283 158.558 203.715C155.899 205.147 152.926 205.897 149.906 205.897C146.886 205.897 143.913 205.147 141.254 203.715C138.595 202.283 136.333 200.213 134.672 197.691C133.921 196.576 133.518 195.264 133.515 193.92C133.512 192.576 133.908 191.262 134.653 190.144Z" fill="url(#paint28_radial_50_17)"/>
<path d="M194.916 144.956C201.426 144.955 207.749 147.132 212.88 151.139C218.01 155.147 221.653 160.755 223.228 167.072C223.443 167.92 223.461 168.807 223.28 169.663C223.098 170.519 222.723 171.323 222.182 172.011C221.642 172.699 220.95 173.254 220.161 173.633C219.372 174.012 218.507 174.205 217.631 174.197H171.028C170.321 174.2 169.621 174.048 168.98 173.75C168.338 173.452 167.77 173.016 167.316 172.474C166.862 171.931 166.533 171.295 166.353 170.611C166.174 169.927 166.147 169.211 166.275 168.516C167.58 161.879 171.15 155.901 176.374 151.604C181.598 147.307 188.152 144.957 194.916 144.956Z" fill="white"/>
<path d="M190.594 150.628C193.461 150.629 196.289 151.291 198.858 152.563C201.428 153.835 203.669 155.682 205.408 157.962C207.147 160.241 208.336 162.891 208.884 165.705C209.432 168.52 209.323 171.422 208.566 174.187H172.547C172.109 172.586 171.882 170.935 171.872 169.275C171.872 159.019 180.262 150.628 190.594 150.628Z" fill="url(#paint29_radial_50_17)"/>
<path d="M179.925 169.275C179.925 163.341 184.669 158.597 190.594 158.597C196.528 158.597 201.281 163.341 201.281 169.275C201.281 171.056 200.85 172.744 200.091 174.188H181.191C180.335 172.693 179.895 170.997 179.916 169.275H179.925Z" fill="black"/>
<g filter="url(#filter13_f_50_17)">
<path d="M189.225 154.575C190.556 156.356 187.781 158.512 184.622 160.875C181.463 163.237 179.119 164.897 177.797 163.125C176.466 161.344 177.947 157.988 181.106 155.625C184.266 153.272 187.894 152.794 189.225 154.575Z" fill="#C7A7A3"/>
<path d="M189.225 154.575C190.556 156.356 187.781 158.512 184.622 160.875C181.463 163.237 179.119 164.897 177.797 163.125C176.466 161.344 177.947 157.988 181.106 155.625C184.266 153.272 187.894 152.794 189.225 154.575Z" fill="url(#paint30_radial_50_17)"/>
</g>
<g filter="url(#filter14_f_50_17)">
<path d="M207.206 166.819C206.65 163.171 204.957 159.792 202.369 157.163L196.941 163.116L199.388 167.878L207.206 166.819Z" fill="url(#paint31_linear_50_17)"/>
</g>
<path d="M104.784 145.069C98.3015 145.071 92.0052 147.24 86.8971 151.232C81.789 155.224 78.1623 160.81 76.5939 167.1C76.382 167.944 76.3662 168.825 76.5476 169.676C76.729 170.527 77.1028 171.325 77.6404 172.009C78.1779 172.693 78.8649 173.245 79.6488 173.623C80.4327 174.001 81.2926 174.194 82.1626 174.188H128.588C129.291 174.191 129.987 174.039 130.626 173.743C131.264 173.446 131.829 173.013 132.28 172.473C132.731 171.933 133.058 171.3 133.236 170.619C133.415 169.938 133.441 169.226 133.313 168.534C131.998 161.93 128.439 155.985 123.239 151.707C118.038 147.43 111.518 145.084 104.784 145.069Z" fill="white"/>
<path d="M109.087 150.722C106.232 150.723 103.415 151.383 100.857 152.65C98.2977 153.917 96.0657 155.757 94.3341 158.027C92.6025 160.298 91.418 162.937 90.8728 165.74C90.3276 168.543 90.4363 171.434 91.1905 174.188H127.069C127.505 172.593 127.732 170.947 127.744 169.294C127.709 164.365 125.729 159.65 122.235 156.173C118.742 152.697 114.016 150.741 109.087 150.731V150.722Z" fill="url(#paint32_radial_50_17)"/>
<path d="M119.719 169.294C119.725 167.895 119.454 166.51 118.922 165.217C118.39 163.923 117.608 162.748 116.619 161.759C115.631 160.77 114.457 159.986 113.164 159.453C111.871 158.92 110.486 158.648 109.087 158.653C107.689 158.648 106.304 158.92 105.011 159.453C103.718 159.986 102.544 160.77 101.556 161.759C100.567 162.748 99.7846 163.923 99.2526 165.217C98.7207 166.51 98.45 167.895 98.4562 169.294C98.4562 171.066 98.878 172.753 99.6374 174.187H118.462C119.212 172.753 119.728 171.066 119.728 169.294H119.719Z" fill="black"/>
<g filter="url(#filter15_f_50_17)">
<path d="M126.056 167.109C126.056 161.109 121.181 157.106 119.859 155.897L113.859 161.709L117.544 169.219L126.056 167.109Z" fill="url(#paint33_linear_50_17)"/>
</g>
<g filter="url(#filter16_f_50_17)">
<path d="M105.413 162.282C109.37 160.185 111.718 156.861 110.656 154.857C109.595 152.853 105.526 152.928 101.568 155.025C97.6106 157.121 95.263 160.446 96.3247 162.449C97.3863 164.453 101.455 164.378 105.413 162.282Z" fill="#C7A7A3" fill-opacity="0.9"/>
<path d="M105.413 162.282C109.37 160.185 111.718 156.861 110.656 154.857C109.595 152.853 105.526 152.928 101.568 155.025C97.6106 157.121 95.263 160.446 96.3247 162.449C97.3863 164.453 101.455 164.378 105.413 162.282Z" fill="url(#paint34_radial_50_17)"/>
</g>
<g filter="url(#filter17_f_50_17)">
<path d="M163.772 103.069C133.453 103.069 116.709 68.0063 113.334 48.8625C157.284 12.975 210.131 44.7375 240.159 67.3031C264.178 85.35 255.047 110.953 248.803 119.747C246.675 112.125 238.05 106.041 228.516 104.513C215.766 102.45 194.081 103.069 163.772 103.069Z" fill="url(#paint35_radial_50_17)"/>
<path d="M163.772 103.069C133.453 103.069 116.709 68.0063 113.334 48.8625C157.284 12.975 210.131 44.7375 240.159 67.3031C264.178 85.35 255.047 110.953 248.803 119.747C246.675 112.125 238.05 106.041 228.516 104.513C215.766 102.45 194.081 103.069 163.772 103.069Z" fill="url(#paint36_radial_50_17)"/>
</g>
<g filter="url(#filter18_f_50_17)">
<path d="M113.344 61.1625C113.784 64.5844 116.625 74.0813 124.481 84.75" stroke="url(#paint37_linear_50_17)" stroke-width="0.15"/>
</g>
<g filter="url(#filter19_f_50_17)">
<path d="M212.372 59.9625H173.737C170.575 59.9625 167.542 61.2189 165.305 63.4553C163.069 65.6916 161.812 68.7248 161.812 71.8875C161.812 75.0502 163.069 78.0834 165.305 80.3198C167.542 82.5561 170.575 83.8125 173.737 83.8125H219.675C239.897 83.8125 248.513 89.4938 250.284 92.3344C243.769 66.4313 222.291 59.9625 212.372 59.9625Z" fill="#504A4C"/>
</g>
<g filter="url(#filter20_f_50_17)">
<path d="M250.284 160.013V135.562" stroke="url(#paint38_linear_50_17)" stroke-width="0.4" stroke-linecap="round"/>
</g>
<g filter="url(#filter21_f_50_17)">
<path d="M116.231 104.512C116.072 101.859 116.231 90.0375 118.725 82.0781" stroke="url(#paint39_linear_50_17)" stroke-width="0.4" stroke-linecap="round"/>
</g>
<g filter="url(#filter22_f_50_17)">
<path d="M116.231 60.4406C118.387 67.575 125.344 83.9625 136.012 92.4563" stroke="url(#paint40_linear_50_17)" stroke-width="0.4" stroke-linecap="round"/>
</g>
<defs>
<filter id="filter0_i_50_17" x="28.0312" y="135.562" width="61.1375" height="60.9375" filterUnits="userSpaceOnUse" color-interpolation-filters="sRGB">
<feFlood flood-opacity="0" result="BackgroundImageFix"/>
<feBlend mode="normal" in="SourceGraphic" in2="BackgroundImageFix" result="shape"/>
<feColorMatrix in="SourceAlpha" type="matrix" values="0 0 0 0 0 0 0 0 0 0 0 0 0 0 0 0 0 0 127 0" result="hardAlpha"/>
<feOffset dx="0.2"/>
<feGaussianBlur stdDeviation="0.15"/>
<feComposite in2="hardAlpha" operator="arithmetic" k2="-1" k3="1"/>
<feColorMatrix type="matrix" values="0 0 0 0 0.917647 0 0 0 0 0.694118 0 0 0 0 0.607843 0 0 0 1 0"/>
<feBlend mode="normal" in2="shape" result="effect1_innerShadow_50_17"/>
</filter>
<filter id="filter1_f_50_17" x="38.125" y="145.656" width="40.75" height="40.75" filterUnits="userSpaceOnUse" color-interpolation-filters="sRGB">
<feFlood flood-opacity="0" result="BackgroundImageFix"/>
<feBlend mode="normal" in="SourceGraphic" in2="BackgroundImageFix" result="shape"/>
<feGaussianBlur stdDeviation="0.25" result="effect1_foregroundBlur_50_17"/>
</filter>
<filter id="filter2_i_50_17" x="211.031" y="135.312" width="61.1875" height="61.1875" filterUnits="userSpaceOnUse" color-interpolation-filters="sRGB">
<feFlood flood-opacity="0" result="BackgroundImageFix"/>
<feBlend mode="normal" in="SourceGraphic" in2="BackgroundImageFix" result="shape"/>
<feColorMatrix in="SourceAlpha" type="matrix" values="0 0 0 0 0 0 0 0 0 0 0 0 0 0 0 0 0 0 127 0" result="hardAlpha"/>
<feOffset dx="0.25" dy="-0.25"/>
<feGaussianBlur stdDeviation="0.25"/>
<feComposite in2="hardAlpha" operator="arithmetic" k2="-1" k3="1"/>
<feColorMatrix type="matrix" values="0 0 0 0 0.843137 0 0 0 0 0.623529 0 0 0 0 0.580392 0 0 0 1 0"/>
<feBlend mode="normal" in2="shape" result="effect1_innerShadow_50_17"/>
</filter>
<filter id="filter3_f_50_17" x="221.125" y="145.656" width="40.75" height="40.75" filterUnits="userSpaceOnUse" color-interpolation-filters="sRGB">
<feFlood flood-opacity="0" result="BackgroundImageFix"/>
<feBlend mode="normal" in="SourceGraphic" in2="BackgroundImageFix" result="shape"/>
<feGaussianBlur stdDeviation="0.25" result="effect1_foregroundBlur_50_17"/>
</filter>
<filter id="filter4_i_50_17" x="53.8066" y="37.6969" width="193.19" height="243.75" filterUnits="userSpaceOnUse" color-interpolation-filters="sRGB">
<feFlood flood-opacity="0" result="BackgroundImageFix"/>
<feBlend mode="normal" in="SourceGraphic" in2="BackgroundImageFix" result="shape"/>
<feColorMatrix in="SourceAlpha" type="matrix" values="0 0 0 0 0 0 0 0 0 0 0 0 0 0 0 0 0 0 127 0" result="hardAlpha"/>
<feOffset dx="1"/>
<feGaussianBlur stdDeviation="1.25"/>
<feComposite in2="hardAlpha" operator="arithmetic" k2="-1" k3="1"/>
<feColorMatrix type="matrix" values="0 0 0 0 0.913725 0 0 0 0 0.686275 0 0 0 0 0.592157 0 0 0 1 0"/>
<feBlend mode="normal" in2="shape" result="effect1_innerShadow_50_17"/>
</filter>
<filter id="filter5_i_50_17" x="87.906" y="128.303" width="24.3565" height="3.93506" filterUnits="userSpaceOnUse" color-interpolation-filters="sRGB">
<feFlood flood-opacity="0" result="BackgroundImageFix"/>
<feBlend mode="normal" in="SourceGraphic" in2="BackgroundImageFix" result="shape"/>
<feColorMatrix in="SourceAlpha" type="matrix" values="0 0 0 0 0 0 0 0 0 0 0 0 0 0 0 0 0 0 127 0" result="hardAlpha"/>
<feOffset dx="0.2" dy="-0.2"/>
<feGaussianBlur stdDeviation="0.2"/>
<feComposite in2="hardAlpha" operator="arithmetic" k2="-1" k3="1"/>
<feColorMatrix type="matrix" values="0 0 0 0 0.0352941 0 0 0 0 0.027451 0 0 0 0 0.0313726 0 0 0 1 0"/>
<feBlend mode="normal" in2="shape" result="effect1_innerShadow_50_17"/>
</filter>
<filter id="filter6_f_50_17" x="87.9561" y="128.553" width="24.0563" height="3.63497" filterUnits="userSpaceOnUse" color-interpolation-filters="sRGB">
<feFlood flood-opacity="0" result="BackgroundImageFix"/>
<feBlend mode="normal" in="SourceGraphic" in2="BackgroundImageFix" result="shape"/>
<feGaussianBlur stdDeviation="0.15" result="effect1_foregroundBlur_50_17"/>
</filter>
<filter id="filter7_i_50_17" x="182.594" y="128.303" width="24.3565" height="3.93506" filterUnits="userSpaceOnUse" color-interpolation-filters="sRGB">
<feFlood flood-opacity="0" result="BackgroundImageFix"/>
<feBlend mode="normal" in="SourceGraphic" in2="BackgroundImageFix" result="shape"/>
<feColorMatrix in="SourceAlpha" type="matrix" values="0 0 0 0 0 0 0 0 0 0 0 0 0 0 0 0 0 0 127 0" result="hardAlpha"/>
<feOffset dx="0.2" dy="-0.2"/>
<feGaussianBlur stdDeviation="0.2"/>
<feComposite in2="hardAlpha" operator="arithmetic" k2="-1" k3="1"/>
<feColorMatrix type="matrix" values="0 0 0 0 0.0352941 0 0 0 0 0.027451 0 0 0 0 0.0313726 0 0 0 1 0"/>
<feBlend mode="normal" in2="shape" result="effect1_innerShadow_50_17"/>
</filter>
<filter id="filter8_f_50_17" x="182.644" y="128.553" width="24.0563" height="3.63497" filterUnits="userSpaceOnUse" color-interpolation-filters="sRGB">
<feFlood flood-opacity="0" result="BackgroundImageFix"/>
<feBlend mode="normal" in="SourceGraphic" in2="BackgroundImageFix" result="shape"/>
<feGaussianBlur stdDeviation="0.15" result="effect1_foregroundBlur_50_17"/>
</filter>
<filter id="filter9_i_50_17" x="43.835" y="17.5527" width="225.928" height="150.851" filterUnits="userSpaceOnUse" color-interpolation-filters="sRGB">
<feFlood flood-opacity="0" result="BackgroundImageFix"/>
<feBlend mode="normal" in="SourceGraphic" in2="BackgroundImageFix" result="shape"/>
<feColorMatrix in="SourceAlpha" type="matrix" values="0 0 0 0 0 0 0 0 0 0 0 0 0 0 0 0 0 0 127 0" result="hardAlpha"/>
<feOffset dy="-1"/>
<feGaussianBlur stdDeviation="0.5"/>
<feComposite in2="hardAlpha" operator="arithmetic" k2="-1" k3="1"/>
<feColorMatrix type="matrix" values="0 0 0 0 0.105882 0 0 0 0 0.0588235 0 0 0 0 0.0745098 0 0 0 1 0"/>
<feBlend mode="normal" in2="shape" result="effect1_innerShadow_50_17"/>
</filter>
<filter id="filter10_f_50_17" x="77.975" y="79.4" width="29.9188" height="28.1469" filterUnits="userSpaceOnUse" color-interpolation-filters="sRGB">
<feFlood flood-opacity="0" result="BackgroundImageFix"/>
<feBlend mode="normal" in="SourceGraphic" in2="BackgroundImageFix" result="shape"/>
<feGaussianBlur stdDeviation="0.1" result="effect1_foregroundBlur_50_17"/>
</filter>
<filter id="filter11_f_50_17" x="130.043" y="168.329" width="32.2676" height="39.2179" filterUnits="userSpaceOnUse" color-interpolation-filters="sRGB">
<feFlood flood-opacity="0" result="BackgroundImageFix"/>
<feBlend mode="normal" in="SourceGraphic" in2="BackgroundImageFix" result="shape"/>
<feGaussianBlur stdDeviation="0.25" result="effect1_foregroundBlur_50_17"/>
</filter>
<filter id="filter12_f_50_17" x="133.265" y="163.304" width="33.2795" height="42.8434" filterUnits="userSpaceOnUse" color-interpolation-filters="sRGB">
<feFlood flood-opacity="0" result="BackgroundImageFix"/>
<feBlend mode="normal" in="SourceGraphic" in2="BackgroundImageFix" result="shape"/>
<feGaussianBlur stdDeviation="0.125" result="effect1_foregroundBlur_50_17"/>
</filter>
<filter id="filter13_f_50_17" x="177.208" y="153.397" width="12.4585" height="10.5704" filterUnits="userSpaceOnUse" color-interpolation-filters="sRGB">
<feFlood flood-opacity="0" result="BackgroundImageFix"/>
<feBlend mode="normal" in="SourceGraphic" in2="BackgroundImageFix" result="shape"/>
<feGaussianBlur stdDeviation="0.05" result="effect1_foregroundBlur_50_17"/>
</filter>
<filter id="filter14_f_50_17" x="196.741" y="156.963" width="10.6656" height="11.1156" filterUnits="userSpaceOnUse" color-interpolation-filters="sRGB">
<feFlood flood-opacity="0" result="BackgroundImageFix"/>
<feBlend mode="normal" in="SourceGraphic" in2="BackgroundImageFix" result="shape"/>
<feGaussianBlur stdDeviation="0.1" result="effect1_foregroundBlur_50_17"/>
</filter>
<filter id="filter15_f_50_17" x="113.659" y="155.697" width="12.5968" height="13.7219" filterUnits="userSpaceOnUse" color-interpolation-filters="sRGB">
<feFlood flood-opacity="0" result="BackgroundImageFix"/>
<feBlend mode="normal" in="SourceGraphic" in2="BackgroundImageFix" result="shape"/>
<feGaussianBlur stdDeviation="0.1" result="effect1_foregroundBlur_50_17"/>
</filter>
<filter id="filter16_f_50_17" x="95.9696" y="153.302" width="15.042" height="10.703" filterUnits="userSpaceOnUse" color-interpolation-filters="sRGB">
<feFlood flood-opacity="0" result="BackgroundImageFix"/>
<feBlend mode="normal" in="SourceGraphic" in2="BackgroundImageFix" result="shape"/>
<feGaussianBlur stdDeviation="0.05" result="effect1_foregroundBlur_50_17"/>
</filter>
<filter id="filter17_f_50_17" x="112.334" y="31.6708" width="144.496" height="89.0761" filterUnits="userSpaceOnUse" color-interpolation-filters="sRGB">
<feFlood flood-opacity="0" result="BackgroundImageFix"/>
<feBlend mode="normal" in="SourceGraphic" in2="BackgroundImageFix" result="shape"/>
<feGaussianBlur stdDeviation="0.5" result="effect1_foregroundBlur_50_17"/>
</filter>
<filter id="filter18_f_50_17" x="113.019" y="60.9029" width="11.7725" height="24.1416" filterUnits="userSpaceOnUse" color-interpolation-filters="sRGB">
<feFlood flood-opacity="0" result="BackgroundImageFix"/>
<feBlend mode="normal" in="SourceGraphic" in2="BackgroundImageFix" result="shape"/>
<feGaussianBlur stdDeviation="0.125" result="effect1_foregroundBlur_50_17"/>
</filter>
<filter id="filter19_f_50_17" x="160.312" y="58.4625" width="91.4719" height="35.3719" filterUnits="userSpaceOnUse" color-interpolation-filters="sRGB">
<feFlood flood-opacity="0" result="BackgroundImageFix"/>
<feBlend mode="normal" in="SourceGraphic" in2="BackgroundImageFix" result="shape"/>
<feGaussianBlur stdDeviation="0.75" result="effect1_foregroundBlur_50_17"/>
</filter>
<filter id="filter20_f_50_17" x="249.684" y="134.963" width="1.1999" height="25.65" filterUnits="userSpaceOnUse" color-interpolation-filters="sRGB">
<feFlood flood-opacity="0" result="BackgroundImageFix"/>
<feBlend mode="normal" in="SourceGraphic" in2="BackgroundImageFix" result="shape"/>
<feGaussianBlur stdDeviation="0.2" result="effect1_foregroundBlur_50_17"/>
</filter>
<filter id="filter21_f_50_17" x="115.788" y="81.6781" width="3.3375" height="23.2344" filterUnits="userSpaceOnUse" color-interpolation-filters="sRGB">
<feFlood flood-opacity="0" result="BackgroundImageFix"/>
<feBlend mode="normal" in="SourceGraphic" in2="BackgroundImageFix" result="shape"/>
<feGaussianBlur stdDeviation="0.1" result="effect1_foregroundBlur_50_17"/>
</filter>
<filter id="filter22_f_50_17" x="115.831" y="60.0406" width="20.5812" height="32.8157" filterUnits="userSpaceOnUse" color-interpolation-filters="sRGB">
<feFlood flood-opacity="0" result="BackgroundImageFix"/>
<feBlend mode="normal" in="SourceGraphic" in2="BackgroundImageFix" result="shape"/>
<feGaussianBlur stdDeviation="0.1" result="effect1_foregroundBlur_50_17"/>
</filter>
<radialGradient id="paint0_radial_50_17" cx="0" cy="0" r="1" gradientUnits="userSpaceOnUse" gradientTransform="translate(28.0312 166.031) scale(32.0274 56.0483)">
<stop offset="0.351" stop-color="#CF9888"/>
<stop offset="1" stop-color="#BE8C77"/>
</radialGradient>
<linearGradient id="paint1_linear_50_17" x1="58.5" y1="171.6" x2="45.7031" y2="171.6" gradientUnits="userSpaceOnUse">
<stop stop-color="#BA7C6B"/>
<stop offset="1" stop-color="#BE8474"/>
</linearGradient>
<linearGradient id="paint2_linear_50_17" x1="261.328" y1="146.109" x2="246.384" y2="192.403" gradientUnits="userSpaceOnUse">
<stop stop-color="#FBD3BD"/>
<stop offset="1" stop-color="#F0B8A4"/>
</linearGradient>
<radialGradient id="paint3_radial_50_17" cx="0" cy="0" r="1" gradientUnits="userSpaceOnUse" gradientTransform="translate(248.288 161.203) rotate(-36.0604) scale(18.6639 21.3025)">
<stop offset="0.543" stop-color="#D9AA94"/>
<stop offset="1" stop-color="#D9AA94" stop-opacity="0"/>
</radialGradient>
<radialGradient id="paint4_radial_50_17" cx="0" cy="0" r="1" gradientUnits="userSpaceOnUse" gradientTransform="translate(240.675 182.438) rotate(-61.4675) scale(34.3474 20.1037)">
<stop offset="0.755" stop-color="#D6A38D" stop-opacity="0"/>
<stop offset="0.916" stop-color="#D6A38D"/>
</radialGradient>
<radialGradient id="paint5_radial_50_17" cx="0" cy="0" r="1" gradientUnits="userSpaceOnUse" gradientTransform="translate(241.5 166.031) rotate(44.7076) scale(7.28822 9.39552)">
<stop stop-color="#D5A58E"/>
<stop offset="1" stop-color="#D5A58E" stop-opacity="0"/>
</radialGradient>
<radialGradient id="paint6_radial_50_17" cx="0" cy="0" r="1" gradientUnits="userSpaceOnUse" gradientTransform="translate(215.044 159.572) rotate(152.58) scale(161.064 182.415)">
<stop stop-color="#FFDCC1"/>
<stop offset="0.401" stop-color="#EEB8A8"/>
<stop offset="0.854" stop-color="#D7A296"/>
</radialGradient>
<radialGradient id="paint7_radial_50_17" cx="0" cy="0" r="1" gradientUnits="userSpaceOnUse" gradientTransform="translate(185.156 172.219) rotate(180) scale(44.5313 27.9491)">
<stop stop-color="#FFE0C1"/>
<stop offset="1" stop-color="#FFE0C1" stop-opacity="0"/>
</radialGradient>
<radialGradient id="paint8_radial_50_17" cx="0" cy="0" r="1" gradientUnits="userSpaceOnUse" gradientTransform="translate(195.994 150.9) rotate(-90) scale(23.2058 30.2379)">
<stop offset="0.232" stop-color="#F9BDAB"/>
<stop offset="1" stop-color="#F9BDAB" stop-opacity="0"/>
</radialGradient>
<radialGradient id="paint9_radial_50_17" cx="0" cy="0" r="1" gradientUnits="userSpaceOnUse" gradientTransform="translate(115.434 154.284) rotate(-90) scale(21.3213 23.0773)">
<stop offset="0.053" stop-color="#CF968E"/>
<stop offset="1" stop-color="#CF968E" stop-opacity="0"/>
</radialGradient>
<linearGradient id="paint10_linear_50_17" x1="256.041" y1="159.572" x2="227.494" y2="159.572" gradientUnits="userSpaceOnUse">
<stop stop-color="#FFD4B8"/>
<stop offset="1" stop-color="#FFD4B8" stop-opacity="0"/>
</linearGradient>
<radialGradient id="paint11_radial_50_17" cx="0" cy="0" r="1" gradientUnits="userSpaceOnUse" gradientTransform="translate(134.475 81.6937) rotate(40.6013) scale(45.9177 27.2963)">
<stop offset="0.015" stop-color="#AB7A6E"/>
<stop offset="1" stop-color="#AB7A6E" stop-opacity="0"/>
</radialGradient>
<radialGradient id="paint12_radial_50_17" cx="0" cy="0" r="1" gradientUnits="userSpaceOnUse" gradientTransform="translate(83.7891 85.3569) rotate(42.842) scale(35.7605 18.7164)">
<stop stop-color="#B48276"/>
<stop offset="1" stop-color="#B48276" stop-opacity="0"/>
</radialGradient>
<radialGradient id="paint13_radial_50_17" cx="0" cy="0" r="1" gradientUnits="userSpaceOnUse" gradientTransform="translate(57.3562 93.6094) rotate(106.302) scale(30.3546 23.0318)">
<stop offset="0.51" stop-color="#AD7966"/>
<stop offset="1" stop-color="#AD7966" stop-opacity="0"/>
</radialGradient>
<radialGradient id="paint14_radial_50_17" cx="0" cy="0" r="1" gradientUnits="userSpaceOnUse" gradientTransform="translate(163.481 141.75) rotate(96.8158) scale(148.117 167.735)">
<stop offset="0.638" stop-color="#B57894" stop-opacity="0"/>
<stop offset="1" stop-color="#B57894"/>
</radialGradient>
<radialGradient id="paint15_radial_50_17" cx="0" cy="0" r="1" gradientUnits="userSpaceOnUse" gradientTransform="translate(99.3187 104.55) rotate(120.256) scale(10.1751 21.7182)">
<stop offset="0.15" stop-color="#B28075"/>
<stop offset="1" stop-color="#B28075" stop-opacity="0"/>
</radialGradient>
<linearGradient id="paint16_linear_50_17" x1="109.275" y1="130.369" x2="86.2781" y2="134.391" gradientUnits="userSpaceOnUse">
<stop stop-color="#353535"/>
<stop offset="1" stop-color="#353535" stop-opacity="0"/>
</linearGradient>
<linearGradient id="paint17_linear_50_17" x1="203.962" y1="130.369" x2="180.966" y2="134.391" gradientUnits="userSpaceOnUse">
<stop stop-color="#353535"/>
<stop offset="1" stop-color="#353535" stop-opacity="0"/>
</linearGradient>
<radialGradient id="paint18_radial_50_17" cx="0" cy="0" r="1" gradientUnits="userSpaceOnUse" gradientTransform="translate(53.9062 156.075) rotate(-90) scale(58.7935 68.5979)">
<stop stop-color="#1A151A"/>
<stop offset="1" stop-color="#1A151A" stop-opacity="0"/>
</radialGradient>
<radialGradient id="paint19_radial_50_17" cx="0" cy="0" r="1" gradientUnits="userSpaceOnUse" gradientTransform="translate(238.153 40.3406) rotate(65.8978) scale(53.5672 36.6988)">
<stop stop-color="#4F484B"/>
<stop offset="1" stop-color="#4F484B" stop-opacity="0"/>
</radialGradient>
<radialGradient id="paint20_radial_50_17" cx="0" cy="0" r="1" gradientUnits="userSpaceOnUse" gradientTransform="translate(92.1093 30.0469) rotate(149.036) scale(45.0184 42.3702)">
<stop stop-color="#434041"/>
<stop offset="1" stop-color="#434041" stop-opacity="0"/>
</radialGradient>
<radialGradient id="paint21_radial_50_17" cx="0" cy="0" r="1" gradientUnits="userSpaceOnUse" gradientTransform="translate(39.3517 96.3185) rotate(28.124) scale(42.3119 65.537)">
<stop stop-color="#514745"/>
<stop offset="1" stop-color="#514745" stop-opacity="0"/>
</radialGradient>
<radialGradient id="paint22_radial_50_17" cx="0" cy="0" r="1" gradientUnits="userSpaceOnUse" gradientTransform="translate(244.983 49.0757) rotate(67.995) scale(66.1573 18.1908)">
<stop stop-color="#514B4D"/>
<stop offset="1" stop-color="#514B4D" stop-opacity="0"/>
</radialGradient>
<linearGradient id="paint23_linear_50_17" x1="84.1688" y1="84.9469" x2="108.45" y2="109.875" gradientUnits="userSpaceOnUse">
<stop stop-color="#3D383A"/>
<stop offset="1" stop-color="#3D383A" stop-opacity="0"/>
</linearGradient>
<linearGradient id="paint24_linear_50_17" x1="162.844" y1="181.706" x2="152.062" y2="183.094" gradientUnits="userSpaceOnUse">
<stop stop-color="#FFDAC2"/>
<stop offset="1" stop-color="#FFDAC2" stop-opacity="0"/>
</linearGradient>
<linearGradient id="paint25_linear_50_17" x1="131.25" y1="195.038" x2="146.484" y2="197.381" gradientUnits="userSpaceOnUse">
<stop stop-color="#DEA790"/>
<stop offset="1" stop-color="#DEA790" stop-opacity="0"/>
</linearGradient>
<linearGradient id="paint26_linear_50_17" x1="149.906" y1="206.906" x2="149.906" y2="192.844" gradientUnits="userSpaceOnUse">
<stop stop-color="#D49597"/>
<stop offset="1" stop-color="#D49597" stop-opacity="0"/>
</linearGradient>
<radialGradient id="paint27_radial_50_17" cx="0" cy="0" r="1" gradientUnits="userSpaceOnUse" gradientTransform="translate(155.681 194.644) rotate(180) scale(10.9369 3.43125)">
<stop stop-color="#FFD6C2"/>
<stop offset="1" stop-color="#FFD6C2" stop-opacity="0"/>
</radialGradient>
<radialGradient id="paint28_radial_50_17" cx="0" cy="0" r="1" gradientUnits="userSpaceOnUse" gradientTransform="translate(149.906 176.287) rotate(90) scale(30.7617 25.6875)">
<stop offset="0.867" stop-color="#CD8D8E" stop-opacity="0"/>
<stop offset="1" stop-color="#CD8D8E"/>
</radialGradient>
<radialGradient id="paint29_radial_50_17" cx="0" cy="0" r="1" gradientUnits="userSpaceOnUse" gradientTransform="translate(190.556 160.594) rotate(90) scale(16.9465 26.9554)">
<stop offset="0.802" stop-color="#7D574A"/>
<stop offset="1" stop-color="#664944"/>
</radialGradient>
<radialGradient id="paint30_radial_50_17" cx="0" cy="0" r="1" gradientUnits="userSpaceOnUse" gradientTransform="translate(185.784 162.356) rotate(-127.812) scale(7.90156 10.8786)">
<stop offset="0.766" stop-color="#FFE6E2" stop-opacity="0"/>
<stop offset="0.966" stop-color="#FFE6E2"/>
</radialGradient>
<linearGradient id="paint31_linear_50_17" x1="206.803" y1="161.719" x2="200.25" y2="165.759" gradientUnits="userSpaceOnUse">
<stop stop-color="#B4948D"/>
<stop offset="1" stop-color="#B4948D" stop-opacity="0"/>
</linearGradient>
<radialGradient id="paint32_radial_50_17" cx="0" cy="0" r="1" gradientUnits="userSpaceOnUse" gradientTransform="translate(109.125 160.65) rotate(90) scale(16.8818 26.8525)">
<stop offset="0.802" stop-color="#7D574A"/>
<stop offset="1" stop-color="#664944"/>
</radialGradient>
<linearGradient id="paint33_linear_50_17" x1="124.612" y1="161.766" x2="118.078" y2="165.788" gradientUnits="userSpaceOnUse">
<stop stop-color="#B4948D"/>
<stop offset="1" stop-color="#B4948D" stop-opacity="0"/>
</linearGradient>
<radialGradient id="paint34_radial_50_17" cx="0" cy="0" r="1" gradientUnits="userSpaceOnUse" gradientTransform="translate(106.277 164.593) rotate(-118.811) scale(10.2816 12.3589)">
<stop offset="0.766" stop-color="#FFE6E2" stop-opacity="0"/>
<stop offset="0.966" stop-color="#FFE6E2"/>
</radialGradient>
<radialGradient id="paint35_radial_50_17" cx="0" cy="0" r="1" gradientUnits="userSpaceOnUse" gradientTransform="translate(177.356 108.534) rotate(-66.9876) scale(65.0079 106.385)">
<stop offset="0.914" stop-color="#4C4749" stop-opacity="0"/>
<stop offset="1" stop-color="#4C4749"/>
</radialGradient>
<radialGradient id="paint36_radial_50_17" cx="0" cy="0" r="1" gradientUnits="userSpaceOnUse" gradientTransform="translate(178.648 40.0147) rotate(101.203) scale(67.8837 111.091)">
<stop offset="0.739" stop-color="#221C27" stop-opacity="0"/>
<stop offset="1" stop-color="#221C27"/>
</radialGradient>
<linearGradient id="paint37_linear_50_17" x1="113.353" y1="67.0406" x2="131.841" y2="94.8656" gradientUnits="userSpaceOnUse">
<stop stop-color="#261C1C"/>
<stop offset="1" stop-color="#261C1C" stop-opacity="0"/>
</linearGradient>
<linearGradient id="paint38_linear_50_17" x1="-nan" y1="-nan" x2="-nan" y2="-nan" gradientUnits="userSpaceOnUse">
<stop offset="0.356" stop-color="#3B3739"/>
<stop offset="1" stop-color="#3B3739" stop-opacity="0"/>
</linearGradient>
<linearGradient id="paint39_linear_50_17" x1="115.959" y1="102.9" x2="118.163" y2="80.9531" gradientUnits="userSpaceOnUse">
<stop offset="0.37" stop-color="#3D383A"/>
<stop offset="1" stop-color="#3D383A" stop-opacity="0"/>
</linearGradient>
<linearGradient id="paint40_linear_50_17" x1="117.356" y1="60.4406" x2="137.466" y2="90.3656" gradientUnits="userSpaceOnUse">
<stop stop-color="#3D383A"/>
<stop offset="1" stop-color="#3D383A" stop-opacity="0"/>
</linearGradient>
</defs>
</svg>
